<svg viewBox="0 0 21 21" xmlns="http://www.w3.org/2000/svg" xmlns:xlink="http://www.w3.org/1999/xlink"><style>:root&gt;svg{display:none}:root&gt;svg:target{display:block}</style><svg viewBox="0 0 6 10" id="angle"><path opacity=".4" d="M5 1L1 5l4 4"/></svg><svg viewBox="0 0 20 12" id="be"><path fill-rule="evenodd" clip-rule="evenodd" d="M8.225 5.399s1.74-.124 1.74-2.112c0-1.981-1.423-2.954-3.23-2.954H.792v11.098h5.943s3.63.108 3.63-3.278c0 0 .156-2.754-2.14-2.754zm2.59 2.02c0-.022.006-4.261 4.387-4.261 4.626 0 3.975 4.817 3.975 4.817h-5.915c0 2.058 2.007 1.928 2.007 1.928 1.9 0 1.834-1.194 1.834-1.194h2.007c0 3.17-3.908 2.955-3.908 2.955-4.687 0-4.387-4.245-4.387-4.245zm4.431-2.636c-1.762 0-2.007 1.707-2.007 1.707h3.747s.028-1.707-1.74-1.707zm-8.51-2.479H3.41v2.479h3.12c.538 0 1.011-.168 1.011-1.323 0-1.156-.806-1.156-.806-1.156zM6.568 9.46H3.41V6.49h3.325s1.206-.011 1.2 1.528c0 1.296-.894 1.431-1.367 1.442zm6.177-7.107V.987h4.714v1.366h-4.714z"/></svg><svg viewBox="0 0 20 21" id="dribbble"><path fill-rule="evenodd" clip-rule="evenodd" d="M10 .444C4.486.444 0 4.976 0 10.546s4.486 10.1 10 10.1 10-4.53 10-10.1C20 4.976 15.514.444 10 .444zm6.58 4.768a8.54 8.54 0 011.866 5.203 20.643 20.643 0 00-3.908-.382c-.62 0-1.272.032-1.926.113-.055-.135-.11-.27-.169-.407-.17-.404-.352-.804-.541-1.198 2.956-1.232 4.382-2.942 4.678-3.33zm-1.014-1.067a8.365 8.365 0 00-7.47-1.9c.343.47 1.787 2.49 3.107 4.929 2.85-1.09 4.128-2.704 4.363-3.029zM6.371 2.854A55.26 55.26 0 019.462 7.72c-3.632.966-6.858 1.028-7.636 1.028h-.083a8.55 8.55 0 014.628-5.895zm-4.816 7.494a8.546 8.546 0 002.124 5.865c.357-.597 2.678-4.248 6.9-5.628.093-.03.187-.058.281-.085a28.767 28.767 0 00-.646-1.364c-3.75 1.125-7.39 1.213-8.438 1.213h-.221zM10 19.092a8.353 8.353 0 01-5.153-1.777c.241-.479 1.993-3.669 6.62-5.297a.056.056 0 01.01-.003c1.16 3.055 1.652 5.619 1.786 6.414a8.319 8.319 0 01-3.263.663zm3.166-7.496c1.05 2.93 1.506 5.334 1.619 5.991a8.559 8.559 0 003.549-5.63c-.321-.1-1.702-.49-3.468-.49-.538 0-1.111.036-1.7.129z"/></svg><svg viewBox="0 0 10 17" id="fb"><path d="M8.783.211L6.784.208c-2.246 0-3.697 1.492-3.697 3.8v1.753h-2.01a.315.315 0 00-.315.315v2.539c0 .174.141.315.315.315h2.01v6.406c0 .174.14.315.314.315h2.623a.315.315 0 00.314-.315V8.93h2.35a.314.314 0 00.314-.315l.001-2.54a.316.316 0 00-.314-.314H6.338V4.275c0-.713.17-1.076 1.098-1.076h1.347a.315.315 0 00.314-.315V.526a.315.315 0 00-.314-.315z"/></svg><svg viewBox="0 0 21 14" id="google"><path d="M.223 6.962C.103 3.76 2.854.802 5.997.763c1.603-.139 3.161.495 4.373 1.53a27.94 27.94 0 01-1.543 1.624c-1.068-.66-2.353-1.165-3.6-.717-2.012.584-3.23 3.006-2.486 5.013.617 2.096 3.117 3.246 5.077 2.365 1.014-.37 1.683-1.325 1.977-2.35-1.163-.024-2.326-.01-3.49-.042-.002-.705-.005-1.408-.002-2.113 1.94-.003 3.881-.01 5.824.008.119 1.729-.131 3.578-1.233 4.966-1.51 1.98-4.298 2.561-6.566 1.784C1.921 12.025.171 9.553.223 6.961zm15.684-2.668h1.73l.011 1.772c.579.006 1.16.01 1.739.012v1.767l-1.739.009c-.006.593-.008 1.182-.012 1.775-.578-.003-1.157 0-1.733 0-.005-.593-.005-1.182-.011-1.772-.579-.006-1.16-.01-1.739-.012V6.078c.579-.003 1.158-.006 1.739-.012.003-.59.009-1.182.015-1.772z"/></svg><svg viewBox="0 0 18 18" id="inst"><path fill-rule="evenodd" clip-rule="evenodd" d="M5.813.5h6.375A5.313 5.313 0 0117.5 5.813v6.375a5.313 5.313 0 01-5.313 5.312H5.814A5.313 5.313 0 01.5 12.187V5.814A5.313 5.313 0 015.813.5zm6.375 15.406a3.723 3.723 0 003.718-3.719V5.814a3.723 3.723 0 00-3.719-3.72H5.814a3.723 3.723 0 00-3.72 3.72v6.375a3.723 3.723 0 003.72 3.718h6.375z"/><path fill-rule="evenodd" clip-rule="evenodd" d="M4.75 9a4.25 4.25 0 118.5 0 4.25 4.25 0 01-8.5 0zm1.594 0A2.66 2.66 0 009 11.656 2.66 2.66 0 0011.656 9 2.66 2.66 0 009 6.344 2.66 2.66 0 006.344 9z"/><path d="M13.604 5.458a1.063 1.063 0 100-2.125 1.063 1.063 0 000 2.125z"/></svg><svg viewBox="0 0 20 20" id="menu"><path d="M.625 6.25h18.75A.627.627 0 0020 5.625.627.627 0 0019.375 5H.625A.627.627 0 000 5.625c0 .344.281.625.625.625zm18.75 3.125H.625A.627.627 0 000 10c0 .344.281.625.625.625h18.75A.627.627 0 0020 10a.627.627 0 00-.625-.625zm0 4.375h-12.5a.627.627 0 00-.625.625c0 .344.281.625.625.625h12.5a.627.627 0 00.625-.625.627.627 0 00-.625-.625zm0 0"/></svg><svg viewBox="0 0 14 17" id="pint"><path d="M10.809 1.8C9.756.774 8.298.208 6.705.208c-2.434 0-3.931 1.013-4.759 1.863C.926 3.118.342 4.509.342 5.886c0 1.73.713 3.057 1.906 3.55.08.034.16.05.24.05.251 0 .45-.166.52-.435.04-.154.133-.533.174-.698.087-.325.016-.482-.173-.709-.345-.414-.506-.904-.506-1.542 0-1.895 1.39-3.91 3.966-3.91 2.043 0 3.313 1.18 3.313 3.079 0 1.198-.254 2.307-.716 3.124-.32.567-.885 1.244-1.75 1.244-.375 0-.711-.156-.924-.429a1.09 1.09 0 01-.186-.936c.091-.392.216-.8.336-1.195.22-.721.426-1.402.426-1.946 0-.93-.562-1.554-1.4-1.554-1.064 0-1.898 1.098-1.898 2.5 0 .686.18 1.2.261 1.398-.134.577-.93 4.006-1.082 4.653-.087.377-.614 3.359.258 3.597.979.267 1.854-2.637 1.943-2.965.072-.267.325-1.276.48-1.897.472.463 1.233.775 1.974.775 1.396 0 2.652-.638 3.535-1.796.857-1.123 1.33-2.689 1.33-4.408 0-1.344-.569-2.67-1.56-3.636z"/></svg><svg viewBox="0 0 20 20" id="scrollup"><path d="M9.984 19.973l9.024-9.024-2.559-2.558-6.465 6.46-6.46-6.46L.96 10.949zm0 0"/><path d="M19.008 2.559L16.449 0 9.984 6.465 3.524 0 .96 2.559l9.023 9.023zm0 0"/></svg><svg viewBox="0 0 16 14" id="tw"><path d="M15.792 2.134a6.344 6.344 0 01-1.837.507A3.224 3.224 0 0015.361.86a6.374 6.374 0 01-2.03.78A3.184 3.184 0 0010.997.625C9.23.625 7.8 2.066 7.8 3.844c0 .252.028.498.083.733a9.055 9.055 0 01-6.59-3.363A3.222 3.222 0 00.86 2.832c0 1.117.565 2.102 1.422 2.68a3.158 3.158 0 01-1.448-.404v.041c0 1.56 1.102 2.86 2.565 3.156a3.166 3.166 0 01-1.444.056 3.203 3.203 0 002.987 2.235 6.388 6.388 0 01-4.734 1.333 9 9 0 004.9 1.446c5.881 0 9.097-4.905 9.097-9.158a9.6 9.6 0 00-.009-.417 6.508 6.508 0 001.596-1.666z"/></svg><svg viewBox="0 0 20 19" id="vimeo"><path d="M0 5.72c1.76-1.425 4.262-4.553 6.214-4.553 1.949 0 2.428 2.335 2.694 4.452.27 2.118 1.035 6.75 2.066 6.75 1.032 0 3.384-4.098 3.25-5.681-.132-1.583-1.835-1.346-2.772-.891.861-3.166 2.85-4.85 5.392-4.85C19.387.947 20 2.77 20 5.006c0 3.405-6.806 13.836-10.917 13.836-2.543 0-3.174-3.8-3.69-5.682-.516-1.879-1.53-6.81-2.715-7.126-.46-.077-1.76.969-1.76.969L0 5.719z"/></svg><svg viewBox="0 0 16 20" id="youtube"><path fill-rule="evenodd" clip-rule="evenodd" d="M5.049 7.665h-1.17l-.002-4.04L2.407.15h1.265l.746 2.58.735-2.573h1.28L5.05 3.622l-.001 4.043zm1.417-4.697c-.084.285-.126.68-.126 1.186V5.55c0 .462.022.808.07 1.04.045.23.122.428.232.59.108.162.26.285.457.366.196.082.434.12.717.12.253 0 .477-.046.673-.141.194-.094.354-.241.477-.438a1.7 1.7 0 00.244-.64c.038-.23.058-.589.058-1.078V4.036c0-.386-.02-.674-.062-.863a1.7 1.7 0 00-.23-.55 1.23 1.23 0 00-.475-.432 1.543 1.543 0 00-.739-.167c-.34 0-.621.087-.84.26-.22.172-.372.4-.456.684zm3.632 4.163a.75.75 0 00.267.338.778.778 0 00.456.127c.16 0 .302-.044.425-.133.124-.09.228-.222.313-.4l-.021.437h1.24V2.228h-.976v4.103a.407.407 0 01-.814 0V2.228H9.969v3.556c0 .453.008.755.022.908.015.152.05.298.107.44zM16 16.875v-5.66c0-1.358-1.178-2.47-2.618-2.47H2.618C1.178 8.745 0 9.857 0 11.215v5.66c0 1.357 1.177 2.468 2.618 2.468h10.764c1.44 0 2.618-1.11 2.618-2.468zm-6.419-3.996c-.266 0-.485.18-.485.4v2.975c0 .22.219.398.485.398.269 0 .488-.178.488-.398v-2.976c0-.22-.22-.4-.488-.4zm3.953 1.31H12.48l.005-.611c0-.272.223-.494.497-.494h.067c.274 0 .498.222.498.494l-.013.612zm-10.198 3.3v-5.962h1.333v-.883l-3.556-.006v.869l1.11.003v5.98h1.113zm2.887-5.074h1.112v5.073l-.893-.002.002-.657c-.24.515-1.2.93-1.7.569-.235-.169-.257-.449-.277-.71a6.415 6.415 0 00-.008-.11 7.343 7.343 0 01-.006-.552l.002-.456-.004-3.155h1.106l.005 3.206c0 .166-.003.306-.006.42-.004.187-.007.305.01.357.158.482.565.22.656-.027.017-.049.014-.152.009-.327a14.128 14.128 0 01-.008-.445v-3.184zm4.672 3.646l-.002-2.65c-.001-1.01-.757-1.615-1.784-.798l.005-1.97-1.111.002-.006 6.8.914-.014.083-.424c1.168 1.073 1.903.338 1.9-.946zm2.647-.347l.835-.004c.38 2.26-2.811 2.63-2.812.004v-1.58c0-.474.047-.847.142-1.12.094-.274.255-.477.467-.629.674-.486 2.008-.335 2.144.615.044.3.057.825.057 1.35v.719h-1.91v1.224c0 .249.206.451.456.451h.164c.25 0 .455-.202.455-.451v-.466l.001-.051.001-.062zM7.311 6.248c0 .298.222.542.493.542.27 0 .492-.243.492-.542V3.442c0-.299-.221-.542-.492-.542-.27 0-.493.243-.493.542v2.806z"/></svg></svg>