<?xml version="1.0" encoding="UTF-8"?>
<svg xmlns="http://www.w3.org/2000/svg" xmlns:xlink="http://www.w3.org/1999/xlink" width="20pt" height="20pt" viewBox="0 0 20 20" version="1.1">
<g id="surface1">
<path style=" stroke:none;fill-rule:nonzero;fill:rgb(0%,0%,0%);fill-opacity:1;" d="M 0.625 6.25 L 19.375 6.25 C 19.71875 6.25 20 5.96875 20 5.625 C 20 5.28125 19.71875 5 19.375 5 L 0.625 5 C 0.28125 5 0 5.28125 0 5.625 C 0 5.96875 0.28125 6.25 0.625 6.25 Z M 0.625 6.25 "/>
<path style=" stroke:none;fill-rule:nonzero;fill:rgb(0%,0%,0%);fill-opacity:1;" d="M 19.375 9.375 L 0.625 9.375 C 0.28125 9.375 0 9.65625 0 10 C 0 10.34375 0.28125 10.625 0.625 10.625 L 19.375 10.625 C 19.71875 10.625 20 10.34375 20 10 C 20 9.65625 19.71875 9.375 19.375 9.375 Z M 19.375 9.375 "/>
<path style=" stroke:none;fill-rule:nonzero;fill:rgb(0%,0%,0%);fill-opacity:1;" d="M 19.375 13.75 L 6.875 13.75 C 6.53125 13.75 6.25 14.03125 6.25 14.375 C 6.25 14.71875 6.53125 15 6.875 15 L 19.375 15 C 19.71875 15 20 14.71875 20 14.375 C 20 14.03125 19.71875 13.75 19.375 13.75 Z M 19.375 13.75 "/>
</g>
</svg>
